<?xml version="1.0" standalone="no"?>
<!DOCTYPE svg PUBLIC "-//W3C//DTD SVG 20010904//EN"
 "http://www.w3.org/TR/2001/REC-SVG-20010904/DTD/svg10.dtd">
<svg version="1.0" xmlns="http://www.w3.org/2000/svg"
 width="1280.000000pt" height="720.000000pt" viewBox="0 0 1280.000000 720.000000"
 preserveAspectRatio="xMidYMid meet">

<g transform="translate(0.000000,720.000000) scale(0.100000,-0.100000)"
fill="#000000" stroke="none">
<path d="M990 3605 l0 -925 95 0 95 0 2 432 3 432 309 -432 310 -432 123 0
122 0 -332 453 c-183 249 -336 458 -340 464 -5 7 122 188 328 468 184 250 335
457 335 460 0 3 -54 5 -119 5 l-119 0 -308 -430 -309 -431 -3 431 -2 430 -95
0 -95 0 0 -925z"/>
<path d="M5755 3454 c-104 -266 -193 -484 -196 -484 -3 0 -85 204 -182 453
l-175 452 -107 3 c-64 2 -106 -1 -103 -7 25 -69 565 -1331 569 -1331 3 0 91
214 194 475 106 267 192 470 196 463 4 -7 91 -222 194 -478 103 -256 188 -466
189 -467 3 -3 566 1332 566 1341 0 3 -47 6 -104 6 l-104 0 -49 -127 c-28 -71
-108 -277 -179 -460 -71 -183 -132 -329 -135 -325 -3 4 -88 219 -189 477 -100
259 -185 475 -189 482 -3 6 -92 -206 -196 -473z"/>
<path d="M4063 3895 c-104 -23 -197 -78 -294 -175 -134 -134 -181 -248 -180
-440 0 -185 60 -321 195 -448 127 -118 253 -167 431 -166 189 2 328 63 458
204 110 119 162 252 161 415 -1 181 -52 304 -183 436 -133 134 -267 190 -450
188 -42 0 -104 -7 -138 -14z m330 -214 c173 -83 280 -283 248 -463 -32 -183
-180 -329 -365 -361 -183 -31 -376 73 -463 250 -26 54 -28 66 -28 178 0 110 2
125 27 178 29 61 119 164 175 198 74 46 132 60 238 56 89 -3 107 -6 168 -36z"/>
<path d="M7510 3886 c-121 -36 -177 -71 -271 -165 -133 -134 -182 -253 -181
-437 0 -186 50 -305 181 -434 135 -134 258 -185 446 -184 169 0 298 51 421
166 82 77 138 163 171 263 21 66 26 99 26 190 0 132 -29 234 -93 331 -155 237
-443 348 -700 270z m353 -205 c235 -113 324 -408 188 -618 -129 -199 -359
-265 -566 -164 -76 38 -161 125 -202 208 -26 54 -28 66 -28 178 0 109 2 125
27 178 29 61 105 148 168 192 67 47 143 65 250 62 83 -3 103 -7 163 -36z"/>
<path d="M11117 3895 c-33 -7 -93 -30 -135 -51 -97 -48 -222 -170 -270 -261
-95 -180 -95 -416 0 -596 69 -130 229 -257 383 -303 89 -27 258 -25 350 3 211
66 387 254 431 462 71 336 -138 668 -470 746 -74 18 -209 18 -289 0z m335
-218 c117 -57 200 -159 232 -282 41 -157 -2 -307 -122 -422 -67 -65 -135 -99
-229 -115 -188 -32 -376 68 -464 247 -32 66 -34 75 -34 180 0 102 2 115 31
175 55 116 148 199 269 243 38 13 73 17 146 14 88 -2 103 -6 171 -40z"/>
<path d="M2735 3887 c-94 -32 -196 -108 -248 -187 -15 -24 -16 -21 -16 78 l-1
102 -95 0 -95 0 0 -600 0 -600 95 0 95 0 0 289 c0 326 11 424 61 527 64 134
171 205 319 212 74 3 91 0 130 -20 25 -13 57 -41 72 -63 53 -78 58 -122 58
-552 l0 -393 95 0 95 0 0 393 c0 403 -5 477 -41 573 -39 104 -135 198 -234
230 -66 22 -238 28 -290 11z"/>
<path d="M9020 3883 c-57 -21 -138 -101 -172 -173 l-27 -55 0 113 -1 112 -95
0 -95 0 0 -600 0 -600 94 0 94 0 4 348 c4 320 7 352 26 412 66 203 209 295
348 225 27 -14 50 -25 52 -25 1 0 2 54 2 119 l0 119 -31 11 c-45 16 -146 12
-199 -6z"/>
<path d="M9350 3790 l0 -90 365 0 c201 0 365 -2 365 -5 0 -2 -170 -226 -378
-497 -208 -271 -382 -499 -386 -505 -6 -10 114 -13 583 -13 l591 0 0 90 0 90
-410 0 -410 0 118 153 c65 83 236 307 381 497 145 190 268 351 274 358 7 9
-102 12 -542 12 l-551 0 0 -90z"/>
</g>
</svg>
